<?xml version="1.0" encoding="iso-8859-1"?>
<!-- Generator: Adobe Illustrator 19.0.0, SVG Export Plug-In . SVG Version: 6.00 Build 0)  -->
<svg version="1.1" id="Capa_1" xmlns="http://www.w3.org/2000/svg" xmlns:xlink="http://www.w3.org/1999/xlink" x="0px" y="0px"
	 viewBox="0 0 512.001 512.001" style="enable-background:new 0 0 512.001 512.001;" xml:space="preserve">
<path style="fill:#D1E7F8;" d="M480.921,512H146.569c-9.724,0-17.606-7.882-17.606-17.606V17.606C128.963,7.882,136.845,0,146.569,0
	h334.352c9.724,0,17.606,7.882,17.606,17.606v476.788C498.527,504.117,490.645,512,480.921,512z"/>
<path style="fill:#B9D8F4;" d="M465.604,494.394V17.606C465.604,7.882,457.722,0,447.998,0h-301.43
	c-9.724,0-17.606,7.882-17.606,17.606v476.788c0,9.724,7.882,17.606,17.606,17.606h301.429
	C457.721,512,465.604,504.118,465.604,494.394z"/>
<path style="fill:#FFE477;" d="M480.921,467.196h-87.984V46.488h87.984c9.724,0,17.606,7.882,17.606,17.606v385.498
	C498.527,459.314,490.645,467.196,480.921,467.196z"/>
<path style="fill:#FFDA44;" d="M465.603,467.195V46.49c-0.025,0-0.049-0.002-0.074-0.002h-72.593v420.709h72.593
	C465.555,467.196,465.58,467.195,465.603,467.195z"/>
<path style="fill:#FF0C38;" d="M498.527,186.724V64.094c0-9.724-7.882-17.606-17.606-17.606h-87.984v140.236H498.527z"/>
<path style="fill:#D80027;" d="M465.603,46.49c-0.025,0-0.049-0.002-0.074-0.002h-72.593v140.236h72.667V46.49z"/>
<path style="fill:#6DC82A;" d="M498.527,326.961v122.631c0,9.724-7.882,17.606-17.606,17.606h-87.984V326.961H498.527z"/>
<path style="fill:#5EAC24;" d="M465.603,326.963c-0.025,0-0.049-0.002-0.074-0.002h-72.593v140.237h72.667V326.963z"/>
<path style="fill:#57A4FF;" d="M414.928,512H80.575c-9.724,0-17.606-7.882-17.606-17.606V17.606C62.969,7.883,70.851,0,80.575,0
	h334.352c9.724,0,17.606,7.882,17.606,17.606v476.788C432.533,504.118,424.651,512,414.928,512z"/>
<path style="fill:#2488FF;" d="M189.617,479.003V32.997c0-18.222,14.771-32.994,32.992-32.997H80.573
	c-9.722,0-17.604,7.881-17.604,17.604v476.794c0,9.722,7.881,17.604,17.604,17.604h142.041
	C204.391,512,189.617,497.227,189.617,479.003z"/>
<path style="fill:#DDFFFB;" d="M332.738,227.678H162.765c-11.379,0-20.604-9.224-20.604-20.604v-80.881
	c0-11.379,9.224-20.604,20.604-20.604h169.973c11.379,0,20.604,9.224,20.604,20.604v80.881
	C353.341,218.453,344.116,227.678,332.738,227.678z"/>
<path style="fill:#AAFFF5;" d="M162.765,105.589c-11.379,0-20.604,9.224-20.604,20.604v80.881c0,11.379,9.224,20.604,20.604,20.604
	h26.852V105.589H162.765z"/>
<path style="fill:#E0E0E2;" d="M92.666,109.989H33.272c-10.889,0-19.798-8.909-19.798-19.798l0,0
	c0-10.889,8.909-19.798,19.798-19.798h59.394c10.889,0,19.798,8.909,19.798,19.798l0,0
	C112.464,101.08,103.555,109.989,92.666,109.989z"/>
<path style="fill:#C6C5CA;" d="M49.871,90.191L49.871,90.191c0-10.889,8.909-19.798,19.798-19.798H33.272
	c-10.889,0-19.798,8.909-19.798,19.798l0,0c0,10.889,8.909,19.798,19.798,19.798h36.396C58.78,109.989,49.871,101.08,49.871,90.191z
	"/>
<g>
	<path style="fill:#E0E0E2;" d="M92.666,220.529H33.272c-10.889,0-19.798-8.909-19.798-19.798l0,0
		c0-10.889,8.909-19.798,19.798-19.798h59.394c10.889,0,19.798,8.909,19.798,19.798l0,0
		C112.464,211.62,103.555,220.529,92.666,220.529z"/>
	<path style="fill:#E0E0E2;" d="M92.666,331.067H33.272c-10.889,0-19.798-8.909-19.798-19.798l0,0
		c0-10.889,8.909-19.798,19.798-19.798h59.394c10.889,0,19.798,8.909,19.798,19.798l0,0
		C112.464,322.158,103.555,331.067,92.666,331.067z"/>
	<path style="fill:#E0E0E2;" d="M92.666,441.607H33.272c-10.889,0-19.798-8.909-19.798-19.798l0,0
		c0-10.889,8.909-19.798,19.798-19.798h59.394c10.889,0,19.798,8.909,19.798,19.798l0,0
		C112.464,432.698,103.555,441.607,92.666,441.607z"/>
</g>
<g>
	<path style="fill:#C6C5CA;" d="M49.871,200.731L49.871,200.731c0-10.889,8.909-19.798,19.798-19.798H33.272
		c-10.889,0-19.798,8.909-19.798,19.798l0,0c0,10.889,8.909,19.798,19.798,19.798h36.396
		C58.78,220.529,49.871,211.62,49.871,200.731z"/>
	<path style="fill:#C6C5CA;" d="M49.871,311.269L49.871,311.269c0-10.889,8.909-19.798,19.798-19.798H33.272
		c-10.889,0-19.798,8.909-19.798,19.798l0,0c0,10.889,8.909,19.798,19.798,19.798h36.396
		C58.78,331.067,49.871,322.158,49.871,311.269z"/>
	<path style="fill:#C6C5CA;" d="M49.871,421.809L49.871,421.809c0-10.889,8.909-19.798,19.798-19.798H33.272
		c-10.889,0-19.798,8.909-19.798,19.798l0,0c0,10.889,8.909,19.798,19.798,19.798h36.396
		C58.78,441.607,49.871,432.698,49.871,421.809z"/>
</g>
<g>
</g>
<g>
</g>
<g>
</g>
<g>
</g>
<g>
</g>
<g>
</g>
<g>
</g>
<g>
</g>
<g>
</g>
<g>
</g>
<g>
</g>
<g>
</g>
<g>
</g>
<g>
</g>
<g>
</g>
</svg>
